<svg width="509.97499999999997px" height="121.60000610351562px" xmlns="http://www.w3.org/2000/svg" viewBox="-4.987499999999983 14.199996948242188 509.97499999999997 121.60000610351562" style="background: rgba(0, 0, 0, 0);" preserveAspectRatio="xMidYMid"><defs><linearGradient id="editing-gradow-gradient" x1="0" x2="1" y1="0.5" y2="0.5" gradientUnits="objectBoundingBox"><stop offset="0" stop-color="#f0f"></stop><stop offset="1" stop-color="#0ff"></stop></linearGradient><filter id="editing-gradow-filter" x="-100%" y="-100%" width="300%" height="300%"><feFlood flood-color="#fffcd9" result="flood"></feFlood><feComposite operator="in" in2="SourceAlpha" in="flood" result="shadow"></feComposite><feOffset dx="-4" dy="-4" in="SourceGraphic" result="offset-1"></feOffset><feOffset dx="4" dy="4" in="shadow" result="offset-2"></feOffset><feMerge><feMergeNode in="offset-2"></feMergeNode><feMergeNode in="offset-1"></feMergeNode></feMerge></filter></defs><g filter="url(#editing-gradow-filter)"><g transform="translate(70.7308703660965, 98.99999809265137)"><path d="M26.05-29.57L26.05-29.57L26.05-29.57Q27.01-31.49 27.01-33.28L27.01-33.28L27.01-33.28Q27.01-35.07 26.82-36.06L26.82-36.06L26.82-36.06Q26.62-37.06 26.18-37.82L26.18-37.82L26.18-37.82Q25.22-39.49 23.30-39.49L23.30-39.49L23.30-39.49Q20.93-39.49 19.01-37.76L19.01-37.76L19.01-37.76Q16.96-35.97 16.96-33.15L16.96-33.15L16.96-33.15Q16.96-31.36 18.21-29.98L18.21-29.98L18.21-29.98Q19.46-28.61 21.38-27.33L21.38-27.33L21.38-27.33Q23.30-26.05 25.47-24.77L25.47-24.77L25.47-24.77Q27.65-23.49 29.57-21.95L29.57-21.95L29.57-21.95Q33.98-18.43 33.98-13.70L33.98-13.70L33.98-13.70Q33.98-10.50 32.29-7.78L32.29-7.78L32.29-7.78Q30.59-5.06 27.78-3.07L27.78-3.07L27.78-3.07Q21.63 1.28 13.50 1.28L13.50 1.28L13.50 1.28Q6.91 1.28 3.52-0.86L3.52-0.86L3.52-0.86Q0.13-3.01 0.13-6.27L0.13-6.27L0.13-6.27Q0.13-12.10 4.67-13.57L4.67-13.57L4.67-13.57Q5.95-14.02 7.90-14.02L7.90-14.02L7.90-14.02Q9.86-14.02 12.10-13.18L12.10-13.18L12.10-13.18Q11.07-10.56 11.07-8.19L11.07-8.19L11.07-8.19Q11.07-3.07 14.72-3.07L14.72-3.07L14.72-3.07Q17.09-3.07 19.04-4.80L19.04-4.80L19.04-4.80Q20.99-6.53 20.99-8.48L20.99-8.48L20.99-8.48Q20.99-10.43 19.74-11.84L19.74-11.84L19.74-11.84Q18.50-13.25 16.64-14.37L16.64-14.37L16.64-14.37Q14.78-15.49 12.64-16.58L12.64-16.58L12.64-16.58Q10.50-17.66 8.64-19.20L8.64-19.20L8.64-19.20Q4.29-22.72 4.29-28.35L4.29-28.35L4.29-28.35Q4.29-32 6.08-34.85L6.08-34.85L6.08-34.85Q7.87-37.70 10.75-39.62L10.75-39.62L10.75-39.62Q16.51-43.52 23.58-43.52L23.58-43.52L23.58-43.52Q30.66-43.52 34.08-41.41L34.08-41.41L34.08-41.41Q37.50-39.30 37.50-35.71L37.50-35.71L37.50-35.71Q37.50-32.58 35.07-30.59L35.07-30.59L35.07-30.59Q32.96-28.93 30.40-28.93L30.40-28.93L30.40-28.93Q27.84-28.93 26.05-29.57ZM84.93 1.28L84.93 1.28L84.93 1.28Q77.18 1.28 77.18-4.74L77.18-4.74L77.18-4.74Q77.18-7.36 78.30-12.45L78.30-12.45L78.30-12.45Q79.42-17.54 79.81-19.58L79.81-19.58L79.81-19.58Q80.70-24.26 80.70-25.73L80.70-25.73L80.70-25.73Q80.70-28.99 78.27-28.99L78.27-28.99L78.27-28.99Q76.67-28.99 75.14-26.78L75.14-26.78L75.14-26.78Q73.60-24.58 72.90-20.16L72.90-20.16L68.93 0L56.45 1.28L59.90-16.13L59.90-16.13Q60.48-19.01 60.99-22.27L60.99-22.27L60.99-22.27Q61.50-25.54 61.50-26.05L61.50-26.05L61.50-26.05Q61.50-28.99 59.33-28.99L59.33-28.99L59.33-28.99Q57.86-28.99 56.26-26.82L56.26-26.82L56.26-26.82Q54.66-24.64 53.76-20.16L53.76-20.16L49.86 0L37.25 1.28L43.97-32.64L54.40-33.92L53.31-27.46L53.31-27.46Q54.98-30.91 58.05-32.42L58.05-32.42L58.05-32.42Q61.12-33.92 65.92-33.92L65.92-33.92L65.92-33.92Q68.67-33.92 70.46-32.58L70.46-32.58L70.46-32.58Q72.26-31.23 72.83-29.06L72.83-29.06L72.83-29.06Q73.92-31.30 76.70-32.61L76.70-32.61L76.70-32.61Q79.49-33.92 82.91-33.92L82.91-33.92L82.91-33.92Q86.34-33.92 88.03-33.18L88.03-33.18L88.03-33.18Q89.73-32.45 90.75-31.23L90.75-31.23L90.75-31.23Q92.48-28.99 92.48-24.90L92.48-24.90L92.48-24.90Q92.48-20.86 90.75-12.48L90.75-12.48L90.75-12.48Q89.86-8.38 89.86-6.88L89.86-6.88L89.86-6.88Q89.86-5.38 90.72-4.48L90.72-4.48L90.72-4.48Q91.58-3.58 92.86-3.46L92.86-3.46L92.86-3.46Q92.22-1.28 90.02 0L90.02 0L90.02 0Q87.81 1.28 84.93 1.28ZM100.58-1.92L100.58-1.92L100.58-1.92Q99.07-3.58 98.40-6.21L98.40-6.21L98.40-6.21Q97.73-8.83 97.73-13.12L97.73-13.12L97.73-13.12Q97.73-17.41 99.20-21.31L99.20-21.31L99.20-21.31Q100.67-25.22 103.36-28.03L103.36-28.03L103.36-28.03Q108.86-33.92 117.95-33.92L117.95-33.92L117.95-33.92Q121.22-33.92 123.58-32.83L123.58-32.83L134.53-33.92L129.79-8.96L129.79-8.96Q129.60-8.19 129.60-6.78L129.60-6.78L129.60-6.78Q129.60-5.38 130.46-4.48L130.46-4.48L130.46-4.48Q131.33-3.58 132.61-3.46L132.61-3.46L132.61-3.46Q131.97-1.28 129.63 0L129.63 0L129.63 0Q127.30 1.28 124.67 1.28L124.67 1.28L124.67 1.28Q122.05 1.28 120.29 0.29L120.29 0.29L120.29 0.29Q118.53-0.70 118.02-2.37L118.02-2.37L118.02-2.37Q116.99-0.77 114.82 0.26L114.82 0.26L114.82 0.26Q112.64 1.28 109.73 1.28L109.73 1.28L109.73 1.28Q106.82 1.28 104.45 0.51L104.45 0.51L104.45 0.51Q102.08-0.26 100.58-1.92ZM114.08-27.90L114.08-27.90L114.08-27.90Q113.34-26.75 112.70-24.80L112.70-24.80L112.70-24.80Q112.06-22.85 111.01-17.63L111.01-17.63L111.01-17.63Q109.95-12.42 109.95-8.70L109.95-8.70L109.95-8.70Q109.95-4.99 110.53-3.90L110.53-3.90L110.53-3.90Q111.10-2.82 112.13-2.82L112.13-2.82L112.13-2.82Q114.18-2.82 115.68-4.77L115.68-4.77L115.68-4.77Q117.18-6.72 117.76-10.18L117.76-10.18L121.15-28.93L121.15-28.93Q119.81-30.08 118.24-30.08L118.24-30.08L118.24-30.08Q116.67-30.08 115.74-29.57L115.74-29.57L115.74-29.57Q114.82-29.06 114.08-27.90ZM158.02-17.98L158.02-17.98L158.02-17.98Q160.32-22.08 160.32-26.24L160.32-26.24L160.32-26.24Q160.32-28.99 158.34-28.99L158.34-28.99L158.34-28.99Q156.80-28.99 155.20-26.37L155.20-26.37L155.20-26.37Q153.54-23.74 153.02-20.35L153.02-20.35L149.70 0L136.45 1.28L142.98-32.64L153.54-33.92L152.38-27.46L152.38-27.46Q155.52-33.92 162.56-33.92L162.56-33.92L162.56-33.92Q166.27-33.92 168.29-32L168.29-32L168.29-32Q170.30-30.08 170.30-26.14L170.30-26.14L170.30-26.14Q170.30-22.21 167.71-19.71L167.71-19.71L167.71-19.71Q165.12-17.22 160.70-17.22L160.70-17.22L160.70-17.22Q158.78-17.22 158.02-17.98ZM172.35-6.40L172.35-6.40L172.35-6.40Q172.35-8.13 173.25-12.48L173.25-12.48L176.64-29.76L172.86-29.76L173.12-31.68L173.12-31.68Q180.80-33.98 188.22-39.62L188.22-39.62L191.30-39.62L189.76-32.64L194.75-32.64L194.18-29.76L189.25-29.76L185.98-12.48L185.98-12.48Q185.15-8.51 185.15-7.17L185.15-7.17L185.15-7.17Q185.15-4.10 187.84-3.46L187.84-3.46L187.84-3.46Q187.20-1.28 184.90 0L184.90 0L184.90 0Q182.59 1.28 179.33 1.28L179.33 1.28L179.33 1.28Q176.06 1.28 174.21-0.77L174.21-0.77L174.21-0.77Q172.35-2.82 172.35-6.40ZM227.84-13.25L227.84-13.25L227.84-13.25Q229.50-12.03 229.50-9.44L229.50-9.44L229.50-9.44Q229.50-6.85 228.38-5.02L228.38-5.02L228.38-5.02Q227.26-3.20 225.09-1.79L225.09-1.79L225.09-1.79Q220.42 1.22 212.26 1.22L212.26 1.22L212.26 1.22Q204.10 1.22 199.65-3.04L199.65-3.04L199.65-3.04Q195.20-7.30 195.20-14.85L195.20-14.85L195.20-14.85Q195.20-25.54 200.77-33.66L200.77-33.66L200.77-33.66Q204.99-39.68 212.54-42.24L212.54-42.24L212.54-42.24Q216.45-43.52 220.29-43.52L220.29-43.52L220.29-43.52Q224.13-43.52 226.50-43.01L226.50-43.01L226.50-43.01Q228.86-42.50 230.66-41.47L230.66-41.47L230.66-41.47Q234.56-39.23 234.56-35.65L234.56-35.65L234.56-35.65Q234.56-32.38 231.49-29.95L231.49-29.95L231.49-29.95Q228.67-27.78 226.37-27.78L226.37-27.78L226.37-27.78Q224.06-27.78 223.10-28.10L223.10-28.10L223.10-28.10Q223.36-30.40 223.36-31.90L223.36-31.90L223.36-31.90Q223.36-33.41 223.30-34.50L223.30-34.50L223.30-34.50Q223.23-35.58 222.91-36.61L222.91-36.61L222.91-36.61Q222.27-38.98 220.32-38.98L220.32-38.98L220.32-38.98Q218.37-38.98 216.42-37.15L216.42-37.15L216.42-37.15Q214.46-35.33 212.80-32.26L212.80-32.26L212.80-32.26Q209.02-25.28 209.02-17.02L209.02-17.02L209.02-17.02Q209.02-13.06 211.26-10.78L211.26-10.78L211.26-10.78Q213.50-8.51 218.30-8.51L218.30-8.51L218.30-8.51Q221.89-8.51 225.28-10.88L225.28-10.88L225.28-10.88Q226.75-11.90 227.84-13.25ZM254.85-17.98L254.85-17.98L254.85-17.98Q257.15-22.08 257.15-26.24L257.15-26.24L257.15-26.24Q257.15-28.99 255.17-28.99L255.17-28.99L255.17-28.99Q253.63-28.99 252.03-26.37L252.03-26.37L252.03-26.37Q250.37-23.74 249.86-20.35L249.86-20.35L246.53 0L233.28 1.28L239.81-32.64L250.37-33.92L249.22-27.46L249.22-27.46Q252.35-33.92 259.39-33.92L259.39-33.92L259.39-33.92Q263.10-33.92 265.12-32L265.12-32L265.12-32Q267.14-30.08 267.14-26.14L267.14-26.14L267.14-26.14Q267.14-22.21 264.54-19.71L264.54-19.71L264.54-19.71Q261.95-17.22 257.54-17.22L257.54-17.22L257.54-17.22Q255.62-17.22 254.85-17.98ZM283.52-3.52L283.52-3.52L283.52-3.52Q281.54 1.28 275.20 1.28L275.20 1.28L275.20 1.28Q271.94 1.28 269.89-0.96L269.89-0.96L269.89-0.96Q268.16-2.94 268.16-4.93L268.16-4.93L268.16-4.93Q268.16-10.11 270.53-20.22L270.53-20.22L272.90-32.64L285.89-33.92L281.98-13.70L281.98-13.70Q280.90-8.96 280.90-7.30L280.90-7.30L280.90-7.30Q280.90-3.65 283.52-3.52ZM274.05-41.54L274.05-41.54L274.05-41.54Q274.05-44.03 276.13-45.38L276.13-45.38L276.13-45.38Q278.21-46.72 281.22-46.72L281.22-46.72L281.22-46.72Q284.22-46.72 286.05-45.38L286.05-45.38L286.05-45.38Q287.87-44.03 287.87-41.54L287.87-41.54L287.87-41.54Q287.87-39.04 285.86-37.76L285.86-37.76L285.86-37.76Q283.84-36.48 280.83-36.48L280.83-36.48L280.83-36.48Q277.82-36.48 275.94-37.76L275.94-37.76L275.94-37.76Q274.05-39.04 274.05-41.54ZM320.38-26.62L320.38-26.62L320.38-26.62Q320.38-23.94 318.14-22.27L318.14-22.27L318.14-22.27Q315.90-20.61 312.26-20.61L312.26-20.61L312.26-20.61Q310.72-20.61 309.82-21.06L309.82-21.06L309.82-21.06Q310.53-22.72 310.75-24.80L310.75-24.80L310.75-24.80Q310.98-26.88 310.98-27.46L310.98-27.46L310.98-27.46Q310.98-30.14 309.12-30.14L309.12-30.14L309.12-30.14Q307.84-30.14 306.40-28.54L306.40-28.54L306.40-28.54Q304.96-26.94 303.74-24.45L303.74-24.45L303.74-24.45Q301.06-18.69 301.06-12.86L301.06-12.86L301.06-12.86Q301.06-9.66 302.27-8.22L302.27-8.22L302.27-8.22Q303.49-6.78 306.18-6.78L306.18-6.78L306.18-6.78Q309.89-6.78 312.83-9.86L312.83-9.86L312.83-9.86Q313.66-10.82 314.11-11.90L314.11-11.90L314.11-11.90Q316.54-10.62 316.54-7.10L316.54-7.10L316.54-7.10Q316.54-3.52 312.58-1.15L312.58-1.15L312.58-1.15Q308.48 1.28 301.95 1.28L301.95 1.28L301.95 1.28Q288.96 1.28 288.96-12.48L288.96-12.48L288.96-12.48Q288.96-22.53 294.66-28.29L294.66-28.29L294.66-28.29Q300.16-33.92 310.27-33.92L310.27-33.92L310.27-33.92Q320.38-33.92 320.38-26.62ZM338.62-30.34L338.62-30.34L338.62-30.34Q342.08-33.92 349.38-33.92L349.38-33.92L349.38-33.92Q353.41-33.92 355.62-31.78L355.62-31.78L355.62-31.78Q357.82-29.63 357.82-25.70L357.82-25.70L357.82-25.70Q357.82-21.76 355.62-18.98L355.62-18.98L355.62-18.98Q353.41-16.19 349.31-15.04L349.31-15.04L349.31-15.04Q349.63-13.76 350.08-12.42L350.08-12.42L350.98-9.86L350.98-9.86Q352.19-6.59 353.15-5.44L353.15-5.44L353.15-5.44Q354.11-4.29 355.39-3.90L355.39-3.90L355.39-3.90Q354.69-1.28 352.13 0.13L352.13 0.13L352.13 0.13Q350.08 1.28 347.26 1.28L347.26 1.28L347.26 1.28Q339.01 1.28 337.92-11.46L337.92-11.46L337.92-11.46Q337.73-13.25 337.73-15.04L337.73-15.04L337.73-15.04Q340.93-15.94 343.17-18.94L343.17-18.94L343.17-18.94Q345.41-21.95 345.41-25.47L345.41-25.47L345.41-25.47Q345.41-28.99 342.91-28.99L342.91-28.99L342.91-28.99Q341.12-28.99 339.71-27.01L339.71-27.01L339.71-27.01Q338.30-25.02 337.66-21.63L337.66-21.63L333.44 0L320.51 1.28L329.47-44.80L342.34-46.08L340.86-38.46L340.86-38.46Q339.90-33.09 338.62-30.34Z" fill="url(#editing-gradow-gradient)"></path></g></g><style>text {
  font-size: 64px;
  font-family: Arial Black;
  dominant-baseline: central;
  text-anchor: middle;
}</style></svg>